<?xml version="1.0" encoding="utf-8"?>
<!-- Generator: Adobe Illustrator 17.0.0, SVG Export Plug-In . SVG Version: 6.00 Build 0)  -->
<!DOCTYPE svg PUBLIC "-//W3C//DTD SVG 1.1//EN" "http://www.w3.org/Graphics/SVG/1.1/DTD/svg11.dtd">
<svg version="1.1" id="Layer_1" xmlns="http://www.w3.org/2000/svg" xmlns:xlink="http://www.w3.org/1999/xlink" x="0px" y="0px"
	 width="291.3px" height="421px" viewBox="0 0 291.3 421" enable-background="new 0 0 291.3 421" xml:space="preserve">
<g>
	<path fill="#FFFFFF" d="M262.6,421H28.8C12.9,421,0,408.2,0,392.3V28.8C0,12.9,12.9,0,28.8,0h233.8c15.9,0,28.8,12.9,28.8,28.8
		v363.5C291.3,408.2,278.5,421,262.6,421z"/>
	<g>
		<polygon fill="#0071F9" points="227.5,68.8 227.4,68.9 227.2,69.1 179.7,116.6 179.5,116.8 131.8,164.5 131.7,164.6 84,212.3 
			83.8,212.5 83.7,212.6 36.1,260.2 36,260.3 35.8,260.5 21.6,274.7 21.6,278.1 37.5,262.2 37.7,262 37.8,261.8 85.3,214.3 
			85.5,214.2 85.7,214 133.2,166.5 133.4,166.3 181,118.6 181.2,118.5 181.4,118.3 228.9,70.8 229.1,70.6 229.2,70.5 269.7,29.9 
			269.7,26.6 		"/>
		<polygon fill="#0071F9" points="265.6,107.2 265.5,107.4 218,154.9 217.8,155.1 217.6,155.2 170.1,202.7 170,202.9 122.3,250.6 
			122.1,250.7 74.4,298.4 74.3,298.6 74.1,298.8 26.4,346.4 26.2,346.6 21.6,351.2 21.6,354.6 28.1,348.1 28.3,348 75.9,300.3 
			76.1,300.1 123.6,252.6 123.8,252.4 171.5,204.8 171.6,204.6 171.8,204.4 219.3,156.9 219.5,156.7 219.7,156.6 267.2,109.1 
			267.3,108.9 267.5,108.7 269.7,106.5 269.7,103.1 265.8,107 		"/>
		<polygon fill="#0071F9" points="256.1,97.6 255.9,97.8 208.4,145.3 208.2,145.5 208.1,145.6 160.4,193.3 160.2,193.5 112.7,241 
			112.5,241.2 112.4,241.3 64.9,288.9 64.7,289 64.5,289.2 21.6,332.1 21.6,335.5 66.2,290.9 66.4,290.7 66.5,290.6 114.1,243 
			114.2,242.9 114.4,242.7 162.1,195 162.2,194.9 209.9,147.2 210.1,147 257.6,99.5 257.8,99.3 257.9,99.2 269.7,87.4 269.7,84 
			256.2,97.5 		"/>
		<polygon fill="#0071F9" points="246.5,88.1 246.3,88.2 198.8,135.7 198.7,135.9 198.5,136.1 150.8,183.8 150.6,183.9 103.1,231.4 
			103,231.6 102.8,231.8 55.3,279.3 55.1,279.5 54.9,279.6 21.6,313 21.6,316.3 56.6,281.3 56.8,281.1 57,281 104.5,233.5 
			104.7,233.3 104.8,233.1 152.5,185.5 152.7,185.3 200.4,137.6 200.5,137.4 248,89.9 248.2,89.8 248.4,89.6 269.7,68.2 269.7,64.8 
			246.7,87.9 		"/>
		<polygon fill="#0071F9" points="236.9,78.5 236.8,78.7 189.3,126.2 189.1,126.3 188.9,126.5 141.2,174.2 141.1,174.4 93.6,221.9 
			93.4,222 93.2,222.2 45.7,269.7 45.5,269.9 45.4,270.1 21.6,293.8 21.6,297.2 47.1,271.7 47.2,271.6 47.4,271.4 94.9,223.9 
			95.1,223.7 95.3,223.6 142.9,175.9 143.1,175.7 190.8,128 190.9,127.9 238.5,80.4 238.6,80.2 238.8,80 269.7,49.1 269.7,45.7 
			237.1,78.3 		"/>
		<polygon fill="#0071F9" points="260.9,102.4 260.7,102.6 213.2,150.1 213,150.3 212.8,150.4 165.3,197.9 165.2,198.1 117.5,245.8 
			117.3,246 69.6,293.6 69.5,293.8 69.3,294 21.6,341.7 21.6,341.7 21.6,345 23.3,343.4 23.5,343.2 71.2,295.5 71.3,295.3 
			118.8,247.8 119,247.7 166.7,200 166.9,199.8 167,199.6 214.5,152.1 214.7,152 214.9,151.8 262.4,104.3 262.6,104.1 262.7,103.9 
			269.7,96.9 269.7,93.5 261,102.3 		"/>
		<polygon fill="#0071F9" points="251.3,92.8 251.1,93 203.6,140.5 203.4,140.7 203.3,140.9 155.6,188.5 155.4,188.7 107.9,236.2 
			107.7,236.4 107.6,236.6 60.1,284.1 59.9,284.2 59.7,284.4 21.6,322.5 21.6,325.9 61.4,286.1 61.6,285.9 61.8,285.8 109.3,238.3 
			109.4,238.1 109.6,237.9 157.3,190.2 157.5,190.1 205.1,142.4 205.3,142.2 252.8,94.7 253,94.5 253.2,94.4 269.7,77.8 269.7,74.4 
			251.5,92.7 		"/>
		<polygon fill="#0071F9" points="241.7,83.3 241.6,83.4 194,131 193.9,131.1 193.7,131.3 146,179 145.9,179.1 98.3,226.7 
			98.2,226.8 98,227 50.5,274.5 50.3,274.7 50.2,274.8 21.6,303.4 21.6,306.8 51.9,276.5 52,276.4 52.2,276.2 99.7,228.7 
			99.9,228.5 100,228.3 147.7,180.7 147.9,180.5 195.6,132.8 195.7,132.7 243.2,85.1 243.4,85 243.6,84.8 269.7,58.7 269.7,55.3 
			241.9,83.1 		"/>
		<polygon fill="#0071F9" points="232.2,73.7 232,73.9 184.5,121.4 184.3,121.6 136.6,169.2 136.5,169.4 88.8,217.1 88.6,217.3 
			88.4,217.4 40.9,264.9 40.8,265.1 40.6,265.3 21.6,284.2 21.6,287.6 42.3,267 42.5,266.8 42.6,266.6 90.1,219.1 90.3,218.9 
			90.5,218.8 138,171.3 138.1,171.1 185.8,123.4 186,123.2 186.2,123.1 233.7,75.6 233.8,75.4 234,75.2 269.7,39.5 269.7,36.1 
			232.3,73.5 		"/>
		<polygon fill="#0071F9" points="265.6,202.9 265.5,203.1 218,250.6 217.8,250.7 217.6,250.9 170.1,298.4 170,298.6 169.8,298.8 
			122.3,346.3 122.1,346.4 121.9,346.6 74.4,394.1 74.3,394.3 74.1,394.5 69.1,399.4 72.5,399.4 75.8,396.2 75.9,396 76.1,395.8 
			123.6,348.3 123.8,348.1 124,348 171.5,300.5 171.6,300.3 171.8,300.1 219.3,252.6 219.5,252.4 219.7,252.3 267.2,204.8 
			267.3,204.6 267.5,204.4 269.7,202.2 269.7,198.8 265.8,202.7 		"/>
		<polygon fill="#0071F9" points="227.4,164.6 227.2,164.8 179.7,212.3 179.5,212.5 131.8,260.2 131.7,260.3 84,308 83.8,308.2 
			83.7,308.3 36,356 35.8,356.2 21.6,370.4 21.6,373.8 37.7,357.7 37.8,357.5 85.5,309.9 85.7,309.7 133.2,262.2 133.4,262 
			181,214.3 181.2,214.2 181.4,214 228.9,166.5 229.1,166.3 229.2,166.1 269.7,125.6 269.7,122.3 227.5,164.5 		"/>
		<polygon fill="#0071F9" points="260.9,198.1 260.7,198.3 213.2,245.8 213,246 212.8,246.1 165.3,293.6 165.2,293.8 165,294 
			117.5,341.5 117.3,341.7 117.2,341.8 69.6,389.3 69.5,389.5 69.3,389.7 59.5,399.4 62.9,399.4 71,391.4 71.2,391.2 71.3,391 
			118.8,343.5 119,343.4 119.2,343.2 166.7,295.7 166.9,295.5 167,295.3 214.5,247.8 214.7,247.7 214.9,247.5 262.4,200 
			262.6,199.8 262.7,199.6 269.7,192.6 269.7,189.2 261,197.9 		"/>
		<polygon fill="#0071F9" points="232.2,169.4 232,169.6 184.5,217.1 184.3,217.3 136.6,264.9 136.5,265.1 88.8,312.8 88.6,313 
			88.4,313.1 40.8,360.8 40.6,361 21.6,379.9 21.6,383.3 42.5,362.5 42.6,362.3 90.3,314.6 90.5,314.5 138,267 138.1,266.8 
			185.8,219.1 186,218.9 186.2,218.8 233.7,171.3 233.8,171.1 234,170.9 269.7,135.2 269.7,131.8 232.3,169.2 		"/>
		<polygon fill="#0071F9" points="222.6,159.8 222.4,160 174.9,207.5 174.7,207.7 127.1,255.4 126.9,255.5 79.2,303.2 79,303.4 
			78.9,303.5 31.2,351.2 31,351.4 21.6,360.8 21.6,364.2 32.9,352.9 33,352.8 80.7,305.1 80.9,304.9 128.4,257.4 128.6,257.2 
			176.3,209.5 176.4,209.4 176.6,209.2 224.1,161.7 224.3,161.5 224.4,161.4 269.7,116.1 269.7,112.7 222.8,159.7 		"/>
		<polygon fill="#0071F9" points="45,21.6 21.6,45 21.6,48.4 48.4,21.6 		"/>
		<polygon fill="#0071F9" points="25.9,21.6 21.6,25.9 21.6,29.2 29.2,21.6 		"/>
		<polygon fill="#0071F9" points="35.4,21.6 21.6,35.4 21.6,38.8 38.8,21.6 		"/>
		<polygon fill="#0071F9" points="255.9,193.5 208.4,241 208.2,241.2 208.1,241.3 160.5,288.9 160.4,289 160.2,289.2 112.7,336.7 
			112.5,336.9 112.4,337 64.9,384.6 64.7,384.7 64.5,384.9 50,399.4 53.4,399.4 66.2,386.6 66.4,386.4 66.5,386.2 114.1,338.7 
			114.2,338.6 114.4,338.4 161.9,290.9 162.1,290.7 162.2,290.6 209.8,243 209.9,242.9 210.1,242.7 257.8,195 257.9,194.9 
			269.7,183.1 269.7,179.7 256.1,193.3 		"/>
		<polygon fill="#0071F9" points="246.3,183.9 198.8,231.4 198.7,231.6 198.5,231.8 151,279.3 150.8,279.5 150.6,279.6 103.1,327.1 
			103,327.3 102.8,327.5 55.3,375 55.1,375.2 54.9,375.3 30.8,399.4 34.2,399.4 56.6,377 56.8,376.8 57,376.7 104.5,329.2 
			104.7,329 104.8,328.8 152.3,281.3 152.5,281.1 152.7,281 200.2,233.5 200.4,233.3 200.5,233.1 248.2,185.5 248.4,185.3 
			269.7,163.9 269.7,160.5 246.5,183.8 		"/>
		<polygon fill="#0071F9" points="236.8,174.4 189.3,221.9 189.1,222 188.9,222.2 141.4,269.7 141.2,269.9 141.1,270.1 93.6,317.6 
			93.4,317.7 93.2,317.9 45.7,365.4 45.5,365.6 45.4,365.8 21.6,389.5 21.6,392.9 47.1,367.4 47.2,367.3 47.4,367.1 94.9,319.6 
			95.1,319.4 95.3,319.3 142.8,271.7 142.9,271.6 143.1,271.4 190.6,223.9 190.8,223.7 190.9,223.6 238.6,175.9 238.8,175.7 
			269.7,144.8 269.7,141.4 236.9,174.2 		"/>
		<polygon fill="#0071F9" points="251.1,188.7 203.6,236.2 203.4,236.4 203.3,236.6 155.8,284.1 155.6,284.2 155.4,284.4 
			107.9,331.9 107.7,332.1 107.6,332.3 60.1,379.8 59.9,379.9 59.7,380.1 40.4,399.4 43.8,399.4 61.4,381.8 61.6,381.6 61.8,381.5 
			109.3,333.9 109.4,333.8 109.6,333.6 157.1,286.1 157.3,285.9 157.5,285.8 205,238.3 205.1,238.1 205.3,237.9 253,190.2 
			253.2,190.1 269.7,173.5 269.7,170.1 251.3,188.5 		"/>
		<polygon fill="#0071F9" points="241.6,179.1 194,226.7 193.9,226.8 193.7,227 146.2,274.5 146,274.7 145.9,274.8 98.3,322.4 
			98.2,322.5 98,322.7 50.5,370.2 50.3,370.4 50.2,370.5 21.6,399.1 21.6,399.4 24.7,399.4 51.9,372.2 52,372.1 52.2,371.9 
			99.7,324.4 99.9,324.2 100,324 147.6,276.5 147.7,276.4 147.9,276.2 195.4,228.7 195.6,228.5 195.7,228.3 243.4,180.7 
			243.6,180.5 269.7,154.4 269.7,151 241.7,179 		"/>
		<polygon fill="#0071F9" points="265.6,298.6 265.5,298.8 217.8,346.4 217.6,346.6 170.1,394.1 170,394.3 164.8,399.4 168.2,399.4 
			171.5,396.2 171.6,396 171.8,395.8 219.5,348.1 219.7,348 267.3,300.3 267.5,300.1 269.7,297.9 269.7,294.5 265.8,298.4 		"/>
		<polygon fill="#0071F9" points="260.9,293.8 260.7,294 213,341.7 212.8,341.8 165.3,389.3 165.2,389.5 155.2,399.4 158.6,399.4 
			166.7,391.4 166.9,391.2 167,391 214.7,343.4 214.9,343.2 262.6,295.5 262.7,295.3 269.7,288.3 269.7,284.9 261,293.6 		"/>
		<polygon fill="#0071F9" points="256.1,289 255.9,289.2 208.4,336.7 208.2,336.9 208.1,337 160.5,384.6 160.4,384.7 160.2,384.9 
			145.7,399.4 149.1,399.4 161.9,386.6 162.1,386.4 162.2,386.2 209.8,338.7 209.9,338.6 210.1,338.4 257.6,290.9 257.8,290.7 
			257.9,290.6 269.7,278.8 269.7,275.4 256.2,288.9 		"/>
		<polygon fill="#0071F9" points="246.5,279.5 246.3,279.6 198.8,327.1 198.7,327.3 198.5,327.5 151,375 150.8,375.2 150.6,375.3 
			126.5,399.4 129.9,399.4 152.3,377 152.5,376.8 152.7,376.7 200.2,329.2 200.4,329 200.5,328.8 248,281.3 248.2,281.1 248.4,281 
			269.7,259.6 269.7,256.2 246.7,279.3 		"/>
		<polygon fill="#0071F9" points="236.9,269.9 236.8,270.1 189.3,317.6 189.1,317.7 188.9,317.9 141.4,365.4 141.2,365.6 
			141.1,365.8 107.4,399.4 110.8,399.4 142.8,367.4 142.9,367.3 143.1,367.1 190.6,319.6 190.8,319.4 190.9,319.3 238.5,271.7 
			238.6,271.6 238.8,271.4 269.7,240.5 269.7,237.1 237.1,269.7 		"/>
		<polygon fill="#0071F9" points="227.4,260.3 227.2,260.5 179.7,308 179.5,308.2 179.4,308.3 131.8,355.8 131.7,356 131.5,356.2 
			88.3,399.4 91.6,399.4 133.2,357.9 133.4,357.7 133.5,357.5 181,310 181.2,309.9 181.4,309.7 228.9,262.2 229.1,262 229.2,261.8 
			269.7,221.3 269.7,218 227.5,260.2 		"/>
		<polygon fill="#0071F9" points="251.3,284.2 251.1,284.4 203.6,331.9 203.4,332.1 203.3,332.3 155.8,379.8 155.6,379.9 
			155.4,380.1 136.1,399.4 139.5,399.4 157.1,381.8 157.3,381.6 157.5,381.5 205,333.9 205.1,333.8 205.3,333.6 252.8,286.1 
			253,285.9 253.2,285.8 269.7,269.2 269.7,265.8 251.5,284.1 		"/>
		<polygon fill="#0071F9" points="241.7,274.7 241.6,274.8 194,322.4 193.9,322.5 193.7,322.7 146.2,370.2 146,370.4 145.9,370.5 
			117,399.4 120.4,399.4 147.6,372.2 147.7,372.1 147.9,371.9 195.4,324.4 195.6,324.2 195.7,324 243.2,276.5 243.4,276.4 
			243.6,276.2 269.7,250 269.7,246.7 241.9,274.5 		"/>
		<polygon fill="#0071F9" points="232.2,265.1 232,265.3 184.5,312.8 184.3,313 184.1,313.1 136.6,360.6 136.5,360.8 136.3,361 
			97.8,399.4 101.2,399.4 138,362.7 138.1,362.5 138.3,362.3 185.8,314.8 186,314.6 186.2,314.5 233.7,267 233.8,266.8 234,266.6 
			269.7,230.9 269.7,227.5 232.3,264.9 		"/>
		<polygon fill="#0071F9" points="222.6,255.5 222.4,255.7 174.9,303.2 174.7,303.4 174.6,303.5 127.1,351.1 126.9,351.2 
			126.7,351.4 79.2,398.9 79,399.1 78.9,399.2 78.7,399.4 79.4,399.4 79.7,399.4 82.1,399.4 128.4,353.1 128.6,352.9 128.7,352.8 
			176.3,305.2 176.4,305.1 176.6,304.9 224.1,257.4 224.3,257.2 224.4,257.1 269.7,211.8 269.7,208.4 222.8,255.4 		"/>
		<polygon fill="#0071F9" points="28.1,61 28.3,60.9 67.5,21.6 64.1,21.6 26.6,59.2 26.4,59.4 26.2,59.5 21.6,64.1 21.6,67.5 
			27.9,61.2 		"/>
		<polygon fill="#0071F9" points="23.3,56.3 23.5,56.1 58,21.6 54.6,21.6 21.8,54.4 21.6,54.6 21.6,54.6 21.6,58 23.1,56.4 		"/>
		<polygon fill="#0071F9" points="66.4,99.3 66.5,99.2 114.1,51.6 114.2,51.5 114.4,51.3 144.1,21.6 140.7,21.6 112.7,49.6 
			112.5,49.8 112.4,50 64.9,97.5 64.7,97.6 64.5,97.8 21.6,140.7 21.6,144.1 66.2,99.5 		"/>
		<polygon fill="#0071F9" points="56.8,89.8 57,89.6 104.5,42.1 104.7,41.9 104.8,41.7 124.9,21.6 121.6,21.6 103.1,40 103,40.2 
			102.8,40.4 55.3,87.9 55.1,88.1 54.9,88.2 21.6,121.6 21.6,124.9 56.6,89.9 		"/>
		<polygon fill="#0071F9" points="47.2,80.2 47.4,80 94.9,32.5 95.1,32.3 95.3,32.2 105.8,21.6 102.4,21.6 93.6,30.5 93.4,30.6 
			93.2,30.8 45.7,78.3 45.5,78.5 45.4,78.7 21.6,102.4 21.6,105.8 47.1,80.4 		"/>
		<polygon fill="#0071F9" points="37.7,70.6 37.8,70.5 85.5,22.8 85.7,22.6 86.7,21.6 84.7,21.6 84.4,21.6 83.3,21.6 36.1,68.8 
			36,68.9 35.8,69.1 21.6,83.3 21.6,86.7 37.5,70.8 		"/>
		<polygon fill="#0071F9" points="61.6,94.5 61.8,94.4 109.3,46.9 109.4,46.7 109.6,46.5 134.5,21.6 131.1,21.6 107.9,44.8 
			107.7,45 107.6,45.2 60.1,92.7 59.9,92.8 59.7,93 21.6,131.1 21.6,134.5 61.4,94.7 		"/>
		<polygon fill="#0071F9" points="52,85 52.2,84.8 99.7,37.3 99.9,37.1 100,37 115.4,21.6 112,21.6 98.3,35.3 98.2,35.4 98,35.6 
			50.5,83.1 50.3,83.3 50.2,83.4 21.6,112 21.6,115.4 51.9,85.1 		"/>
		<polygon fill="#0071F9" points="42.5,75.4 42.6,75.2 90.3,27.6 90.5,27.4 96.2,21.6 92.9,21.6 88.6,25.9 88.4,26 40.9,73.5 
			40.8,73.7 40.6,73.9 21.6,92.9 21.6,96.2 42.3,75.6 		"/>
		<polygon fill="#0071F9" points="32.9,65.8 33,65.7 77.1,21.6 73.7,21.6 31.4,64 31.2,64.1 31,64.3 21.6,73.7 21.6,77.1 32.7,66 		
			"/>
		<polygon fill="#0071F9" points="66.5,194.9 114.2,147.2 114.4,147 161.9,99.5 162.1,99.3 162.2,99.2 209.8,51.6 209.9,51.5 
			210.1,51.3 239.8,21.6 236.4,21.6 208.4,49.6 208.2,49.8 208.1,50 160.5,97.5 160.4,97.6 160.2,97.8 112.7,145.3 112.5,145.5 
			112.4,145.6 64.7,193.3 64.5,193.5 21.6,236.4 21.6,239.8 66.4,195 		"/>
		<polygon fill="#0071F9" points="57,185.3 104.7,137.6 104.8,137.4 152.3,89.9 152.5,89.8 152.7,89.6 200.2,42.1 200.4,41.9 
			200.5,41.7 220.6,21.6 217.3,21.6 198.8,40 198.7,40.2 198.5,40.4 151,87.9 150.8,88.1 150.6,88.2 103.1,135.7 103,135.9 
			102.8,136.1 55.1,183.8 54.9,183.9 21.6,217.3 21.6,220.6 56.8,185.5 		"/>
		<polygon fill="#0071F9" points="47.4,175.7 95.1,128 95.3,127.9 142.8,80.4 142.9,80.2 143.1,80 190.6,32.5 190.8,32.3 
			190.9,32.2 201.5,21.6 198.1,21.6 189.3,30.5 189.1,30.6 188.9,30.8 141.4,78.3 141.2,78.5 141.1,78.7 93.6,126.2 93.4,126.3 
			93.2,126.5 45.5,174.2 45.4,174.4 21.6,198.1 21.6,201.5 47.2,175.9 		"/>
		<polygon fill="#0071F9" points="61.8,190.1 109.4,142.4 109.6,142.2 157.1,94.7 157.3,94.5 157.5,94.4 205,46.9 205.1,46.7 
			205.3,46.5 230.2,21.6 226.8,21.6 203.6,44.8 203.4,45 203.3,45.2 155.8,92.7 155.6,92.8 155.4,93 107.9,140.5 107.7,140.7 
			107.6,140.9 59.9,188.5 59.7,188.7 21.6,226.8 21.6,230.2 61.6,190.2 		"/>
		<polygon fill="#0071F9" points="52.2,180.5 99.9,132.8 100,132.7 147.6,85.1 147.7,85 147.9,84.8 195.4,37.3 195.6,37.1 195.7,37 
			211.1,21.6 207.7,21.6 194,35.3 193.9,35.4 193.7,35.6 146.2,83.1 146,83.3 145.9,83.4 98.3,131 98.2,131.1 98,131.3 50.3,179 
			50.2,179.1 21.6,207.7 21.6,211.1 52,180.7 		"/>
		<polygon fill="#0071F9" points="265.6,394.3 265.5,394.5 260.5,399.4 263.9,399.4 267.2,396.2 267.3,396 267.5,395.8 269.7,393.6 
			269.7,390.2 265.8,394.1 		"/>
		<polygon fill="#0071F9" points="256.1,384.7 255.9,384.9 241.4,399.4 244.8,399.4 257.6,386.6 257.8,386.4 257.9,386.2 
			269.7,374.5 269.7,371.1 256.2,384.6 		"/>
		<polygon fill="#0071F9" points="246.5,375.2 246.3,375.3 222.2,399.4 225.6,399.4 248,377 248.2,376.8 248.4,376.7 269.7,355.3 
			269.7,351.9 246.7,375 		"/>
		<polygon fill="#0071F9" points="236.9,365.6 236.8,365.8 203.1,399.4 206.5,399.4 238.5,367.4 238.6,367.3 238.8,367.1 
			269.7,336.2 269.7,332.8 237.1,365.4 		"/>
		<polygon fill="#0071F9" points="260.9,389.5 260.7,389.7 250.9,399.4 254.3,399.4 262.4,391.4 262.6,391.2 262.7,391 269.7,384 
			269.7,380.6 261,389.3 		"/>
		<polygon fill="#0071F9" points="251.3,379.9 251.1,380.1 231.8,399.4 235.2,399.4 252.8,381.8 253,381.6 253.2,381.5 269.7,364.9 
			269.7,361.5 251.5,379.8 		"/>
		<polygon fill="#0071F9" points="241.7,370.4 241.6,370.5 212.7,399.4 216,399.4 243.2,372.2 243.4,372.1 243.6,371.9 269.7,345.7 
			269.7,342.4 241.9,370.2 		"/>
		<polygon fill="#0071F9" points="28.1,156.7 28.3,156.6 75.8,109.1 75.9,108.9 76.1,108.7 123.6,61.2 123.8,61 163.2,21.6 
			159.8,21.6 122.3,59.2 122.1,59.4 74.4,107 74.3,107.2 74.1,107.4 26.6,154.9 26.4,155.1 26.2,155.2 21.6,159.8 21.6,163.2 
			27.9,156.9 		"/>
		<polygon fill="#0071F9" points="23.3,152 23.5,151.8 71,104.3 71.2,104.1 71.3,103.9 118.8,56.4 119,56.3 153.7,21.6 150.3,21.6 
			117.5,54.4 117.3,54.6 69.6,102.3 69.5,102.4 69.3,102.6 21.8,150.1 21.6,150.3 21.6,150.3 21.6,153.7 23.1,152.1 		"/>
		<polygon fill="#0071F9" points="37.7,166.3 37.8,166.1 85.3,118.6 85.5,118.5 85.7,118.3 133.2,70.8 133.4,70.6 181,22.9 
			181.2,22.8 181.4,22.6 182.4,21.6 180.4,21.6 180.1,21.6 179,21.6 131.8,68.8 131.7,68.9 84,116.6 83.8,116.8 83.7,116.9 
			36.1,164.5 36,164.6 35.8,164.8 21.6,179 21.6,182.4 37.5,166.5 		"/>
		<polygon fill="#0071F9" points="42.5,171.1 42.6,170.9 90.1,123.4 90.3,123.2 90.5,123.1 138,75.6 138.1,75.4 185.8,27.7 
			186,27.6 186.2,27.4 191.9,21.6 188.6,21.6 184.3,25.9 136.6,73.5 136.5,73.7 88.8,121.4 88.6,121.6 88.4,121.7 40.9,169.2 
			40.8,169.4 40.6,169.6 21.6,188.6 21.6,191.9 42.3,171.3 		"/>
		<polygon fill="#0071F9" points="32.9,161.5 33,161.4 80.6,113.8 80.7,113.7 80.9,113.5 128.4,66 128.6,65.8 172.8,21.6 
			169.4,21.6 127.1,64 126.9,64.1 79.2,111.8 79,112 78.9,112.2 31.4,159.7 31.2,159.8 31,160 21.6,169.4 21.6,172.8 32.7,161.7 		
			"/>
		<polygon fill="#0071F9" points="227.2,356.2 184,399.4 187.3,399.4 229.1,357.7 229.2,357.5 269.7,317 269.7,313.7 227.4,356 		
			"/>
		<polygon fill="#0071F9" points="232,361 193.5,399.4 196.9,399.4 233.8,362.5 234,362.3 269.7,326.6 269.7,323.2 232.2,360.8 		
			"/>
		<polygon fill="#0071F9" points="222.4,351.4 174.9,398.9 174.7,399.1 174.4,399.4 175.1,399.4 175.4,399.4 177.8,399.4 
			224.3,352.9 224.4,352.8 269.7,307.5 269.7,304.1 222.6,351.2 		"/>
		<polygon fill="#0071F9" points="28.1,252.4 28.3,252.3 75.8,204.8 75.9,204.6 76.1,204.4 123.6,156.9 123.8,156.7 171.5,109.1 
			171.6,108.9 171.8,108.7 219.3,61.2 219.5,61 219.7,60.9 258.9,21.6 255.5,21.6 218,59.2 217.8,59.4 217.6,59.5 170.1,107 
			170,107.2 122.3,154.9 122.1,155.1 74.4,202.7 74.3,202.9 74.1,203.1 26.6,250.6 26.4,250.7 26.2,250.9 21.6,255.5 21.6,258.9 
			27.9,252.6 		"/>
		<polygon fill="#0071F9" points="23.3,247.7 23.5,247.5 71,200 71.2,199.8 71.3,199.6 118.8,152.1 119,152 166.7,104.3 
			166.9,104.1 167,103.9 214.5,56.4 214.7,56.3 214.9,56.1 249.4,21.6 246,21.6 213.2,54.4 213,54.6 212.8,54.7 165.3,102.3 
			165.2,102.4 117.5,150.1 117.3,150.3 69.6,197.9 69.5,198.1 69.3,198.3 21.8,245.8 21.6,246 21.6,246 21.6,249.4 23.1,247.8 		"/>
		<polygon fill="#0071F9" points="32.9,257.2 33,257.1 80.6,209.5 80.7,209.4 80.9,209.2 128.4,161.7 128.6,161.5 176.3,113.8 
			176.4,113.7 176.6,113.5 224.1,66 224.3,65.8 224.4,65.7 268.5,21.6 265.1,21.6 222.8,64 222.6,64.1 222.4,64.3 174.9,111.8 
			174.7,112 127.1,159.7 126.9,159.8 79.2,207.5 79,207.7 78.9,207.9 31.4,255.4 31.2,255.5 31,255.7 21.6,265.1 21.6,268.5 
			32.7,257.4 		"/>
	</g>
	<g>
		<polygon fill="#0071F9" points="63.8,68.8 64,68.9 64.1,69.1 111.7,116.6 111.8,116.8 159.5,164.5 159.7,164.6 207.4,212.3 
			207.5,212.5 207.7,212.6 255.2,260.2 255.4,260.3 255.5,260.5 269.7,274.7 269.7,278.1 253.8,262.2 253.7,262 253.5,261.8 
			206,214.3 205.8,214.2 205.7,214 158.2,166.5 158,166.3 110.3,118.6 110.1,118.5 110,118.3 62.5,70.8 62.3,70.6 62.1,70.5 
			21.6,29.9 21.6,26.6 		"/>
		<polygon fill="#0071F9" points="25.7,107.2 25.9,107.4 73.4,154.9 73.5,155.1 73.7,155.2 121.2,202.7 121.4,202.9 169.1,250.6 
			169.2,250.7 216.9,298.4 217.1,298.6 217.3,298.8 264.9,346.4 265.1,346.6 269.7,351.2 269.7,354.6 263.3,348.1 263.1,348 
			215.4,300.3 215.2,300.1 167.7,252.6 167.6,252.4 119.9,204.8 119.7,204.6 119.5,204.4 72,156.9 71.9,156.7 71.7,156.6 
			24.2,109.1 24,108.9 23.8,108.7 21.6,106.5 21.6,103.1 25.5,107 		"/>
		<polygon fill="#0071F9" points="35.3,97.6 35.4,97.8 83,145.3 83.1,145.5 83.3,145.6 131,193.3 131.1,193.5 178.6,241 
			178.8,241.2 179,241.3 226.5,288.9 226.7,289 226.8,289.2 269.7,332.1 269.7,335.5 225.1,290.9 225,290.7 224.8,290.6 177.3,243 
			177.1,242.9 177,242.7 129.3,195 129.1,194.9 81.4,147.2 81.3,147 33.7,99.5 33.6,99.3 33.4,99.2 21.6,87.4 21.6,84 35.1,97.5 		
			"/>
		<polygon fill="#0071F9" points="44.8,88.1 45,88.2 92.5,135.7 92.7,135.9 92.9,136.1 140.5,183.8 140.7,183.9 188.2,231.4 
			188.4,231.6 188.6,231.8 236.1,279.3 236.2,279.5 236.4,279.6 269.7,313 269.7,316.3 234.7,281.3 234.5,281.1 234.4,281 
			186.9,233.5 186.7,233.3 186.5,233.1 138.8,185.5 138.7,185.3 91,137.6 90.8,137.4 43.3,89.9 43.1,89.8 43,89.6 21.6,68.2 
			21.6,64.8 44.7,87.9 		"/>
		<polygon fill="#0071F9" points="54.4,78.5 54.6,78.7 102.1,126.2 102.3,126.3 102.4,126.5 150.1,174.2 150.3,174.4 197.8,221.9 
			198,222 198.1,222.2 245.6,269.7 245.8,269.9 246,270.1 269.7,293.8 269.7,297.2 244.3,271.7 244.1,271.6 243.9,271.4 
			196.4,223.9 196.3,223.7 196.1,223.6 148.4,175.9 148.2,175.7 100.6,128 100.4,127.9 52.9,80.4 52.7,80.2 52.6,80 21.6,49.1 
			21.6,45.7 54.2,78.3 		"/>
		<polygon fill="#0071F9" points="30.5,102.4 30.7,102.6 78.2,150.1 78.3,150.3 78.5,150.4 126,197.9 126.2,198.1 173.9,245.8 
			174,246 221.7,293.6 221.9,293.8 222,294 269.7,341.7 269.7,341.7 269.7,345 268,343.4 267.9,343.2 220.2,295.5 220,295.3 
			172.5,247.8 172.3,247.7 124.7,200 124.5,199.8 124.3,199.6 76.8,152.1 76.6,152 76.5,151.8 29,104.3 28.8,104.1 28.6,103.9 
			21.6,96.9 21.6,93.5 30.3,102.3 		"/>
		<polygon fill="#0071F9" points="40.1,92.8 40.2,93 87.7,140.5 87.9,140.7 88.1,140.9 135.8,188.5 135.9,188.7 183.4,236.2 
			183.6,236.4 183.8,236.6 231.3,284.1 231.4,284.2 231.6,284.4 269.7,322.5 269.7,325.9 229.9,286.1 229.8,285.9 229.6,285.8 
			182.1,238.3 181.9,238.1 181.7,237.9 134.1,190.2 133.9,190.1 86.2,142.4 86,142.2 38.5,94.7 38.4,94.5 38.2,94.4 21.6,77.8 
			21.6,74.4 39.9,92.7 		"/>
		<polygon fill="#0071F9" points="49.6,83.3 49.8,83.4 97.3,131 97.5,131.1 97.6,131.3 145.3,179 145.5,179.1 193,226.7 
			193.2,226.8 193.3,227 240.9,274.5 241,274.7 241.2,274.8 269.7,303.4 269.7,306.8 239.5,276.5 239.3,276.4 239.2,276.2 
			191.6,228.7 191.5,228.5 191.3,228.3 143.6,180.7 143.5,180.5 95.8,132.8 95.6,132.7 48.1,85.1 47.9,85 47.8,84.8 21.6,58.7 
			21.6,55.3 49.5,83.1 		"/>
		<polygon fill="#0071F9" points="59.2,73.7 59.4,73.9 106.9,121.4 107,121.6 154.7,169.2 154.9,169.4 202.6,217.1 202.7,217.3 
			202.9,217.4 250.4,264.9 250.6,265.1 250.8,265.3 269.7,284.2 269.7,287.6 249.1,267 248.9,266.8 248.7,266.6 201.2,219.1 
			201,218.9 200.9,218.8 153.4,171.3 153.2,171.1 105.5,123.4 105.4,123.2 105.2,123.1 57.7,75.6 57.5,75.4 57.3,75.2 21.6,39.5 
			21.6,36.1 59,73.5 		"/>
		<polygon fill="#0071F9" points="25.7,202.9 25.9,203.1 73.4,250.6 73.5,250.7 73.7,250.9 121.2,298.4 121.4,298.6 121.6,298.8 
			169.1,346.3 169.2,346.4 169.4,346.6 216.9,394.1 217.1,394.3 217.3,394.5 222.2,399.4 218.8,399.4 215.6,396.2 215.4,396 
			215.2,395.8 167.7,348.3 167.6,348.1 167.4,348 119.9,300.5 119.7,300.3 119.5,300.1 72,252.6 71.9,252.4 71.7,252.3 24.2,204.8 
			24,204.6 23.8,204.4 21.6,202.2 21.6,198.8 25.5,202.7 		"/>
		<polygon fill="#0071F9" points="64,164.6 64.1,164.8 111.7,212.3 111.8,212.5 159.5,260.2 159.7,260.3 207.4,308 207.5,308.2 
			207.7,308.3 255.4,356 255.5,356.2 269.7,370.4 269.7,373.8 253.7,357.7 253.5,357.5 205.8,309.9 205.7,309.7 158.2,262.2 
			158,262 110.3,214.3 110.1,214.2 110,214 62.5,166.5 62.3,166.3 62.1,166.1 21.6,125.6 21.6,122.3 63.8,164.5 		"/>
		<polygon fill="#0071F9" points="30.5,198.1 30.7,198.3 78.2,245.8 78.3,246 78.5,246.1 126,293.6 126.2,293.8 126.3,294 
			173.9,341.5 174,341.7 174.2,341.8 221.7,389.3 221.9,389.5 222,389.7 231.8,399.4 228.4,399.4 220.4,391.4 220.2,391.2 220,391 
			172.5,343.5 172.3,343.4 172.2,343.2 124.7,295.7 124.5,295.5 124.3,295.3 76.8,247.8 76.6,247.7 76.5,247.5 29,200 28.8,199.8 
			28.6,199.6 21.6,192.6 21.6,189.2 30.3,197.9 		"/>
		<polygon fill="#0071F9" points="59.2,169.4 59.4,169.6 106.9,217.1 107,217.3 154.7,264.9 154.9,265.1 202.6,312.8 202.7,313 
			202.9,313.1 250.6,360.8 250.8,361 269.7,379.9 269.7,383.3 248.9,362.5 248.7,362.3 201,314.6 200.9,314.5 153.4,267 
			153.2,266.8 105.5,219.1 105.4,218.9 105.2,218.8 57.7,171.3 57.5,171.1 57.3,170.9 21.6,135.2 21.6,131.8 59,169.2 		"/>
		<polygon fill="#0071F9" points="68.8,159.8 68.9,160 116.4,207.5 116.6,207.7 164.3,255.4 164.5,255.5 212.1,303.2 212.3,303.4 
			212.5,303.5 260.2,351.2 260.3,351.4 269.7,360.8 269.7,364.2 258.5,352.9 258.3,352.8 210.6,305.1 210.5,304.9 162.9,257.4 
			162.8,257.2 115.1,209.5 114.9,209.4 114.8,209.2 67.2,161.7 67.1,161.5 66.9,161.4 21.6,116.1 21.6,112.7 68.6,159.7 		"/>
		<polygon fill="#0071F9" points="246.3,21.6 269.7,45 269.7,48.4 243,21.6 		"/>
		<polygon fill="#0071F9" points="265.5,21.6 269.7,25.9 269.7,29.2 262.1,21.6 		"/>
		<polygon fill="#0071F9" points="255.9,21.6 269.7,35.4 269.7,38.8 252.5,21.6 		"/>
		<polygon fill="#0071F9" points="35.4,193.5 83,241 83.1,241.2 83.3,241.3 130.8,288.9 131,289 131.1,289.2 178.6,336.7 
			178.8,336.9 179,337 226.5,384.6 226.7,384.7 226.8,384.9 241.4,399.4 238,399.4 225.1,386.6 225,386.4 224.8,386.2 177.3,338.7 
			177.1,338.6 177,338.4 129.4,290.9 129.3,290.7 129.1,290.6 81.6,243 81.4,242.9 81.3,242.7 33.6,195 33.4,194.9 21.6,183.1 
			21.6,179.7 35.3,193.3 		"/>
		<polygon fill="#0071F9" points="45,183.9 92.5,231.4 92.7,231.6 92.9,231.8 140.4,279.3 140.5,279.5 140.7,279.6 188.2,327.1 
			188.4,327.3 188.6,327.5 236.1,375 236.2,375.2 236.4,375.3 260.5,399.4 257.1,399.4 234.7,377 234.5,376.8 234.4,376.7 
			186.9,329.2 186.7,329 186.5,328.8 139,281.3 138.8,281.1 138.7,281 91.2,233.5 91,233.3 90.8,233.1 43.1,185.5 43,185.3 
			21.6,163.9 21.6,160.5 44.8,183.8 		"/>
		<polygon fill="#0071F9" points="54.6,174.4 102.1,221.9 102.3,222 102.4,222.2 149.9,269.7 150.1,269.9 150.3,270.1 197.8,317.6 
			198,317.7 198.1,317.9 245.6,365.4 245.8,365.6 246,365.8 269.7,389.5 269.7,392.9 244.3,367.4 244.1,367.3 243.9,367.1 
			196.4,319.6 196.3,319.4 196.1,319.3 148.6,271.7 148.4,271.6 148.2,271.4 100.7,223.9 100.6,223.7 100.4,223.6 52.7,175.9 
			52.6,175.7 21.6,144.8 21.6,141.4 54.4,174.2 		"/>
		<polygon fill="#0071F9" points="40.2,188.7 87.7,236.2 87.9,236.4 88.1,236.6 135.6,284.1 135.8,284.2 135.9,284.4 183.4,331.9 
			183.6,332.1 183.8,332.3 231.3,379.8 231.4,379.9 231.6,380.1 250.9,399.4 247.6,399.4 229.9,381.8 229.8,381.6 229.6,381.5 
			182.1,333.9 181.9,333.8 181.7,333.6 134.2,286.1 134.1,285.9 133.9,285.8 86.4,238.3 86.2,238.1 86,237.9 38.4,190.2 38.2,190.1 
			21.6,173.5 21.6,170.1 40.1,188.5 		"/>
		<polygon fill="#0071F9" points="49.8,179.1 97.3,226.7 97.5,226.8 97.6,227 145.2,274.5 145.3,274.7 145.5,274.8 193,322.4 
			193.2,322.5 193.3,322.7 240.9,370.2 241,370.4 241.2,370.5 269.7,399.1 269.7,399.4 266.7,399.4 239.5,372.2 239.3,372.1 
			239.2,371.9 191.6,324.4 191.5,324.2 191.3,324 143.8,276.5 143.6,276.4 143.5,276.2 95.9,228.7 95.8,228.5 95.6,228.3 
			47.9,180.7 47.8,180.5 21.6,154.4 21.6,151 49.6,179 		"/>
		<polygon fill="#0071F9" points="25.7,298.6 25.9,298.8 73.5,346.4 73.7,346.6 121.2,394.1 121.4,394.3 126.5,399.4 123.1,399.4 
			119.9,396.2 119.7,396 119.5,395.8 71.9,348.1 71.7,348 24,300.3 23.8,300.1 21.6,297.9 21.6,294.5 25.5,298.4 		"/>
		<polygon fill="#0071F9" points="30.5,293.8 30.7,294 78.3,341.7 78.5,341.8 126,389.3 126.2,389.5 136.1,399.4 132.7,399.4 
			124.7,391.4 124.5,391.2 124.3,391 76.6,343.4 76.5,343.2 28.8,295.5 28.6,295.3 21.6,288.3 21.6,284.9 30.3,293.6 		"/>
		<polygon fill="#0071F9" points="35.3,289 35.4,289.2 83,336.7 83.1,336.9 83.3,337 130.8,384.6 131,384.7 131.1,384.9 
			145.7,399.4 142.3,399.4 129.4,386.6 129.3,386.4 129.1,386.2 81.6,338.7 81.4,338.6 81.3,338.4 33.7,290.9 33.6,290.7 
			33.4,290.6 21.6,278.8 21.6,275.4 35.1,288.9 		"/>
		<polygon fill="#0071F9" points="44.8,279.5 45,279.6 92.5,327.1 92.7,327.3 92.9,327.5 140.4,375 140.5,375.2 140.7,375.3 
			164.8,399.4 161.4,399.4 139,377 138.8,376.8 138.7,376.7 91.2,329.2 91,329 90.8,328.8 43.3,281.3 43.1,281.1 43,281 21.6,259.6 
			21.6,256.2 44.7,279.3 		"/>
		<polygon fill="#0071F9" points="54.4,269.9 54.6,270.1 102.1,317.6 102.3,317.7 102.4,317.9 149.9,365.4 150.1,365.6 150.3,365.8 
			184,399.4 180.6,399.4 148.6,367.4 148.4,367.3 148.2,367.1 100.7,319.6 100.6,319.4 100.4,319.3 52.9,271.7 52.7,271.6 
			52.6,271.4 21.6,240.5 21.6,237.1 54.2,269.7 		"/>
		<polygon fill="#0071F9" points="64,260.3 64.1,260.5 111.7,308 111.8,308.2 112,308.3 159.5,355.8 159.7,356 159.8,356.2 
			203.1,399.4 199.7,399.4 158.2,357.9 158,357.7 157.8,357.5 110.3,310 110.1,309.9 110,309.7 62.5,262.2 62.3,262 62.1,261.8 
			21.6,221.3 21.6,218 63.8,260.2 		"/>
		<polygon fill="#0071F9" points="40.1,284.2 40.2,284.4 87.7,331.9 87.9,332.1 88.1,332.3 135.6,379.8 135.8,379.9 135.9,380.1 
			155.2,399.4 151.9,399.4 134.2,381.8 134.1,381.6 133.9,381.5 86.4,333.9 86.2,333.8 86,333.6 38.5,286.1 38.4,285.9 38.2,285.8 
			21.6,269.2 21.6,265.8 39.9,284.1 		"/>
		<polygon fill="#0071F9" points="49.6,274.7 49.8,274.8 97.3,322.4 97.5,322.5 97.6,322.7 145.2,370.2 145.3,370.4 145.5,370.5 
			174.4,399.4 171,399.4 143.8,372.2 143.6,372.1 143.5,371.9 95.9,324.4 95.8,324.2 95.6,324 48.1,276.5 47.9,276.4 47.8,276.2 
			21.6,250 21.6,246.7 49.5,274.5 		"/>
		<polygon fill="#0071F9" points="59.2,265.1 59.4,265.3 106.9,312.8 107,313 107.2,313.1 154.7,360.6 154.9,360.8 155.1,361 
			193.5,399.4 190.1,399.4 153.4,362.7 153.2,362.5 153,362.3 105.5,314.8 105.4,314.6 105.2,314.5 57.7,267 57.5,266.8 57.3,266.6 
			21.6,230.9 21.6,227.5 59,264.9 		"/>
		<polygon fill="#0071F9" points="68.8,255.5 68.9,255.7 116.4,303.2 116.6,303.4 116.8,303.5 164.3,351.1 164.5,351.2 164.6,351.4 
			212.1,398.9 212.3,399.1 212.5,399.2 212.7,399.4 212,399.4 211.6,399.4 209.3,399.4 162.9,353.1 162.8,352.9 162.6,352.8 
			115.1,305.2 114.9,305.1 114.8,304.9 67.2,257.4 67.1,257.2 66.9,257.1 21.6,211.8 21.6,208.4 68.6,255.4 		"/>
		<polygon fill="#0071F9" points="263.3,61 263.1,60.9 223.8,21.6 227.2,21.6 264.8,59.2 264.9,59.4 265.1,59.5 269.7,64.1 
			269.7,67.5 263.4,61.2 		"/>
		<polygon fill="#0071F9" points="268,56.3 267.9,56.1 233.4,21.6 236.8,21.6 269.6,54.4 269.7,54.6 269.7,54.6 269.7,58 
			268.2,56.4 		"/>
		<polygon fill="#0071F9" points="225,99.3 224.8,99.2 177.3,51.6 177.1,51.5 177,51.3 147.3,21.6 150.6,21.6 178.6,49.6 
			178.8,49.8 179,50 226.5,97.5 226.7,97.6 226.8,97.8 269.7,140.7 269.7,144.1 225.1,99.5 		"/>
		<polygon fill="#0071F9" points="234.5,89.8 234.4,89.6 186.9,42.1 186.7,41.9 186.5,41.7 166.4,21.6 169.8,21.6 188.2,40 
			188.4,40.2 188.6,40.4 236.1,87.9 236.2,88.1 236.4,88.2 269.7,121.6 269.7,124.9 234.7,89.9 		"/>
		<polygon fill="#0071F9" points="244.1,80.2 243.9,80 196.4,32.5 196.3,32.3 196.1,32.2 185.5,21.6 188.9,21.6 197.8,30.5 
			198,30.6 198.1,30.8 245.6,78.3 245.8,78.5 246,78.7 269.7,102.4 269.7,105.8 244.3,80.4 		"/>
		<polygon fill="#0071F9" points="253.7,70.6 253.5,70.5 205.8,22.8 205.7,22.6 204.7,21.6 206.7,21.6 207,21.6 208.1,21.6 
			255.2,68.8 255.4,68.9 255.5,69.1 269.7,83.3 269.7,86.7 253.8,70.8 		"/>
		<polygon fill="#0071F9" points="229.8,94.5 229.6,94.4 182.1,46.9 181.9,46.7 181.7,46.5 156.8,21.6 160.2,21.6 183.4,44.8 
			183.6,45 183.8,45.2 231.3,92.7 231.4,92.8 231.6,93 269.7,131.1 269.7,134.5 229.9,94.7 		"/>
		<polygon fill="#0071F9" points="239.3,85 239.2,84.8 191.6,37.3 191.5,37.1 191.3,37 176,21.6 179.4,21.6 193,35.3 193.2,35.4 
			193.3,35.6 240.9,83.1 241,83.3 241.2,83.4 269.7,112 269.7,115.4 239.5,85.1 		"/>
		<polygon fill="#0071F9" points="248.9,75.4 248.7,75.2 201,27.6 200.9,27.4 195.1,21.6 198.5,21.6 202.7,25.9 202.9,26 
			250.4,73.5 250.6,73.7 250.8,73.9 269.7,92.9 269.7,96.2 249.1,75.6 		"/>
		<polygon fill="#0071F9" points="258.5,65.8 258.3,65.7 214.3,21.6 217.6,21.6 260,64 260.2,64.1 260.3,64.3 269.7,73.7 
			269.7,77.1 258.6,66 		"/>
		<polygon fill="#0071F9" points="224.8,194.9 177.1,147.2 177,147 129.4,99.5 129.3,99.3 129.1,99.2 81.6,51.6 81.4,51.5 
			81.3,51.3 51.6,21.6 54.9,21.6 83,49.6 83.1,49.8 83.3,50 130.8,97.5 131,97.6 131.1,97.8 178.6,145.3 178.8,145.5 179,145.6 
			226.7,193.3 226.8,193.5 269.7,236.4 269.7,239.8 225,195 		"/>
		<polygon fill="#0071F9" points="234.4,185.3 186.7,137.6 186.5,137.4 139,89.9 138.8,89.8 138.7,89.6 91.2,42.1 91,41.9 
			90.8,41.7 70.7,21.6 74.1,21.6 92.5,40 92.7,40.2 92.9,40.4 140.4,87.9 140.5,88.1 140.7,88.2 188.2,135.7 188.4,135.9 
			188.6,136.1 236.2,183.8 236.4,183.9 269.7,217.3 269.7,220.6 234.5,185.5 		"/>
		<polygon fill="#0071F9" points="243.9,175.7 196.3,128 196.1,127.9 148.6,80.4 148.4,80.2 148.2,80 100.7,32.5 100.6,32.3 
			100.4,32.2 89.8,21.6 93.2,21.6 102.1,30.5 102.3,30.6 102.4,30.8 149.9,78.3 150.1,78.5 150.3,78.7 197.8,126.2 198,126.3 
			198.1,126.5 245.8,174.2 246,174.4 269.7,198.1 269.7,201.5 244.1,175.9 		"/>
		<polygon fill="#0071F9" points="229.6,190.1 181.9,142.4 181.7,142.2 134.2,94.7 134.1,94.5 133.9,94.4 86.4,46.9 86.2,46.7 
			86,46.5 61.1,21.6 64.5,21.6 87.7,44.8 87.9,45 88.1,45.2 135.6,92.7 135.8,92.8 135.9,93 183.4,140.5 183.6,140.7 183.8,140.9 
			231.4,188.5 231.6,188.7 269.7,226.8 269.7,230.2 229.8,190.2 		"/>
		<polygon fill="#0071F9" points="239.2,180.5 191.5,132.8 191.3,132.7 143.8,85.1 143.6,85 143.5,84.8 95.9,37.3 95.8,37.1 
			95.6,37 80.3,21.6 83.7,21.6 97.3,35.3 97.5,35.4 97.6,35.6 145.2,83.1 145.3,83.3 145.5,83.4 193,131 193.2,131.1 193.3,131.3 
			241,179 241.2,179.1 269.7,207.7 269.7,211.1 239.3,180.7 		"/>
		<polygon fill="#0071F9" points="25.7,394.3 25.9,394.5 30.8,399.4 27.5,399.4 24.2,396.2 24,396 23.8,395.8 21.6,393.6 
			21.6,390.2 25.5,394.1 		"/>
		<polygon fill="#0071F9" points="35.3,384.7 35.4,384.9 50,399.4 46.6,399.4 33.7,386.6 33.6,386.4 33.4,386.2 21.6,374.5 
			21.6,371.1 35.1,384.6 		"/>
		<polygon fill="#0071F9" points="44.8,375.2 45,375.3 69.1,399.4 65.7,399.4 43.3,377 43.1,376.8 43,376.7 21.6,355.3 21.6,351.9 
			44.7,375 		"/>
		<polygon fill="#0071F9" points="54.4,365.6 54.6,365.8 88.3,399.4 84.9,399.4 52.9,367.4 52.7,367.3 52.6,367.1 21.6,336.2 
			21.6,332.8 54.2,365.4 		"/>
		<polygon fill="#0071F9" points="30.5,389.5 30.7,389.7 40.4,399.4 37,399.4 29,391.4 28.8,391.2 28.6,391 21.6,384 21.6,380.6 
			30.3,389.3 		"/>
		<polygon fill="#0071F9" points="40.1,379.9 40.2,380.1 59.5,399.4 56.2,399.4 38.5,381.8 38.4,381.6 38.2,381.5 21.6,364.9 
			21.6,361.5 39.9,379.8 		"/>
		<polygon fill="#0071F9" points="49.6,370.4 49.8,370.5 78.7,399.4 75.3,399.4 48.1,372.2 47.9,372.1 47.8,371.9 21.6,345.7 
			21.6,342.4 49.5,370.2 		"/>
		<polygon fill="#0071F9" points="263.3,156.7 263.1,156.6 215.6,109.1 215.4,108.9 215.2,108.7 167.7,61.2 167.6,61 128.1,21.6 
			131.5,21.6 169.1,59.2 169.2,59.4 216.9,107 217.1,107.2 217.3,107.4 264.8,154.9 264.9,155.1 265.1,155.2 269.7,159.8 
			269.7,163.2 263.4,156.9 		"/>
		<polygon fill="#0071F9" points="268,152 267.9,151.8 220.4,104.3 220.2,104.1 220,103.9 172.5,56.4 172.3,56.3 137.7,21.6 
			141.1,21.6 173.9,54.4 174,54.6 221.7,102.3 221.9,102.4 222,102.6 269.6,150.1 269.7,150.3 269.7,150.3 269.7,153.7 268.2,152.1 
					"/>
		<polygon fill="#0071F9" points="253.7,166.3 253.5,166.1 206,118.6 205.8,118.5 205.7,118.3 158.2,70.8 158,70.6 110.3,22.9 
			110.1,22.8 110,22.6 109,21.6 111,21.6 111.3,21.6 112.4,21.6 159.5,68.8 159.7,68.9 207.4,116.6 207.5,116.8 207.7,116.9 
			255.2,164.5 255.4,164.6 255.5,164.8 269.7,179 269.7,182.4 253.8,166.5 		"/>
		<polygon fill="#0071F9" points="248.9,171.1 248.7,170.9 201.2,123.4 201,123.2 200.9,123.1 153.4,75.6 153.2,75.4 105.5,27.7 
			105.4,27.6 105.2,27.4 99.4,21.6 102.8,21.6 107,25.9 154.7,73.5 154.9,73.7 202.6,121.4 202.7,121.6 202.9,121.7 250.4,169.2 
			250.6,169.4 250.8,169.6 269.7,188.6 269.7,191.9 249.1,171.3 		"/>
		<polygon fill="#0071F9" points="258.5,161.5 258.3,161.4 210.8,113.8 210.6,113.7 210.5,113.5 162.9,66 162.8,65.8 118.6,21.6 
			121.9,21.6 164.3,64 164.5,64.1 212.1,111.8 212.3,112 212.5,112.2 260,159.7 260.2,159.8 260.3,160 269.7,169.4 269.7,172.8 
			258.6,161.7 		"/>
		<polygon fill="#0071F9" points="64.1,356.2 107.4,399.4 104,399.4 62.3,357.7 62.1,357.5 21.6,317 21.6,313.7 64,356 		"/>
		<polygon fill="#0071F9" points="59.4,361 97.8,399.4 94.4,399.4 57.5,362.5 57.3,362.3 21.6,326.6 21.6,323.2 59.2,360.8 		"/>
		<polygon fill="#0071F9" points="68.9,351.4 116.4,398.9 116.6,399.1 117,399.4 116.3,399.4 115.9,399.4 113.6,399.4 67.1,352.9 
			66.9,352.8 21.6,307.5 21.6,304.1 68.8,351.2 		"/>
		<polygon fill="#0071F9" points="263.3,252.4 263.1,252.3 215.6,204.8 215.4,204.6 215.2,204.4 167.7,156.9 167.6,156.7 
			119.9,109.1 119.7,108.9 119.5,108.7 72,61.2 71.9,61 71.7,60.9 32.4,21.6 35.8,21.6 73.4,59.2 73.5,59.4 73.7,59.5 121.2,107 
			121.4,107.2 169.1,154.9 169.2,155.1 216.9,202.7 217.1,202.9 217.3,203.1 264.8,250.6 264.9,250.7 265.1,250.9 269.7,255.5 
			269.7,258.9 263.4,252.6 		"/>
		<polygon fill="#0071F9" points="268,247.7 267.9,247.5 220.4,200 220.2,199.8 220,199.6 172.5,152.1 172.3,152 124.7,104.3 
			124.5,104.1 124.3,103.9 76.8,56.4 76.6,56.3 76.5,56.1 42,21.6 45.4,21.6 78.2,54.4 78.3,54.6 78.5,54.7 126,102.3 126.2,102.4 
			173.9,150.1 174,150.3 221.7,197.9 221.9,198.1 222,198.3 269.6,245.8 269.7,246 269.7,246 269.7,249.4 268.2,247.8 		"/>
		<polygon fill="#0071F9" points="258.5,257.2 258.3,257.1 210.8,209.5 210.6,209.4 210.5,209.2 162.9,161.7 162.8,161.5 
			115.1,113.8 114.9,113.7 114.8,113.5 67.2,66 67.1,65.8 66.9,65.7 22.9,21.6 26.2,21.6 68.6,64 68.8,64.1 68.9,64.3 116.4,111.8 
			116.6,112 164.3,159.7 164.5,159.8 212.1,207.5 212.3,207.7 212.5,207.9 260,255.4 260.2,255.5 260.3,255.7 269.7,265.1 
			269.7,268.5 258.6,257.4 		"/>
	</g>
	<g>
		<circle fill="#FFFFFF" cx="145.7" cy="210.5" r="100.2"/>
		<path fill="#0071F9" d="M224.5,217.6l14.7-6.9l-14.6-6.9l13.3-9.3l-15.6-4.2l11.4-11.5l-16.6-1.5l9.4-13.6l-16.1,1.4l6.8-14.7
			l-15.6,4.1l4.1-15.6l-14.7,6.8l1.4-16.1l-13.3,9.2l-1.4-16.1l-11.5,11.4l-4.2-15.6l-9.4,13.4l-7.1-15.1l-6.9,14.7l-9.3-13.2
			l-4.2,15.7l-11.5-11.4l-1.5,16.2l-13.3-9.2l1.4,16.2l-14.7-6.8l4.2,15.7l-15.6-4.1l6.7,14.5l-16.3-1.4l9.3,13.4l-16.2,1.5
			l11.5,11.6l-15.7,4.2l13.3,9.4l-14.7,6.9l14.8,6.9L53.6,227l15.7,4.3l-11.5,11.5l15.8,1.4l-9.1,13.1l16.2-1.4l-6.9,14.8l15.7-4.2
			l-4.2,15.8l14.8-6.8l-1.4,16.3l13.4-9.3l1.5,16.2l11.5-11.5l4.3,15.7l9.3-13.2l6.7,14.3l6.9-14.7l9.4,13.3l4.2-15.6l11.6,11.5
			l1.5-16.1l13.4,9.3l-1.4-16.1l14.8,6.8l-4.2-15.7l15.7,4.2l-6.9-15l16,1.4l-9.2-13.2l16.1-1.5l-11.4-11.4l15.6-4.2L224.5,217.6z
			 M236,210.7l-12.7,6l-8.4-5.9l8.5-6L236,210.7z M181,245.9l-5.3,0.5l-1.4,5.1l-5.3-0.5l-2.3,5l-4.8-1.3l-3.1,4.3l-4.9-2.3
			l-3.8,3.7l-4.4-3.1l-4.4,3l-3.5-3.5l-0.3-0.3l-4.8,2.2l-3.1-4.4l-5.1,1.4l-2.3-4.9l-5.1,0.4l-1.3-4.8l-5.3-0.5l-0.5-5.3l-5.2-1.4
			l0.4-4.8l0-0.5l-4.9-2.3l1.4-5.2l-4.4-3.1l2.2-4.8l-3.8-3.8l2.8-4l0.3-0.4l-2.8-4.1l3.8-3.8l-2.3-4.9l4.3-3l-1.4-5.2l4.8-2.2
			l-0.5-5.4l5.1-1.4l0.5-5.4l5.2-0.5l1.4-5.2l5.2,0.4l2.2-4.6l5.5,1.4l3.1-4.3l4.7,2.2l3.8-3.7l4.3,3l4.4-3l3.4,3.4l0.3,0.3l4.8-2.2
			l3,4.3l5.1-1.4l2.2,4.7l5.5-0.5l1.5,5.4l5.2,0.5l0.5,5.3l5.1,1.4l-0.4,4.8l0,0.5l4.7,2.2l-1.4,5.1l4.3,3l-2.2,4.8l3.7,3.7
			l-2.7,3.9l-0.3,0.4l3.2,4.7l-3.7,3.7l2.2,4.8l-4.4,3.1l1.3,5.1l-4.8,2.3l0.4,5.2l-5.2,1.4L181,245.9z M194,210.5l2.3-3.3l3.6,3.6
			l-3.4,3.4L194,210.5z M197.1,206l2.8-4.1l5.1,3.6l-4.2,4.2L197.1,206z M196.1,205l-2.8-2.9l1.7-3.7l3.8,2.7L196.1,205z
			 M195.6,197.2l2.1-4.5l5.3,2.5l-3.4,4.8L195.6,197.2z M194.4,196.4l-3.3-2.3l1-3.9l4.2,2L194.4,196.4z M192.5,188.8l1.3-4.8
			l5.7,1.5l-2.5,5.3L192.5,188.8z M191.3,188.2l-3.7-1.7l0.3-4.1l4.5,1.2L191.3,188.2z M188.1,181l0.4-4.9l5.8,0.5l-1.5,5.7
			L188.1,181z M186.7,180.7l-3.9-1.1l-0.4-4.1l4.7,0.4L186.7,180.7z M182.3,174.2l-0.5-5.2l5.9-0.5l-0.5,6.2L182.3,174.2z
			 M180.9,174.1l-4-0.4l-1.1-4.2l4.7-0.4L180.9,174.1z M175.4,168.1l-1.3-4.8l5.7-1.5l0.5,5.9L175.4,168.1z M174,168.2l-4.3,0.4
			l-1.7-3.6l4.7-1.3L174,168.2z M167.5,163.7l-2.1-4.4l5.5-2.6l1.5,5.7L167.5,163.7z M166.1,164l-4,1.1l-2.3-3.3l4.3-2L166.1,164z
			 M159,160.6l-2.8-4l4.9-3.4l2.5,5.3L159,160.6z M157.8,161.2L154,163l-2.9-2.8l3.9-2.7L157.8,161.2z M150.2,159.1l-3.5-3.5
			l4.2-4.2l3.4,4.8L150.2,159.1z M149,159.9l-3.4,2.3l-3.3-2.3l3.4-3.3L149,159.9z M141.2,159.2l-4-2.8l3.4-4.8l4.2,4.1L141.2,159.2
			z M140.2,160.2l-2.9,2.9l-3.6-1.7l2.7-3.9L140.2,160.2z M132.4,160.8l-4.8-2.2l2.5-5.4l5.2,3.6L132.4,160.8z M131.6,161.9
			l-2.4,3.4l-4.3-1.1l2-4.4L131.6,161.9z M123.6,163.8l-4.7-1.3l1.6-5.8l5.3,2.5L123.6,163.8z M123,165.1l-1.7,3.5l-4-0.3l1.2-4.4
			L123,165.1z M115.9,168.1l-4.9-0.4l0.5-5.7l5.7,1.5L115.9,168.1z M115.5,169.5l-1.1,4l-4,0.4l0.4-4.8L115.5,169.5z M109,174
			l-4.9,0.4l-0.5-6l5.9,0.5L109,174z M108.9,175.4l-0.4,4.1l-3.9,1.1l-0.4-4.8L108.9,175.4z M103.3,181l-4.8,1.3l-1.5-5.8l5.9-0.5
			L103.3,181z M103.4,182.3l0.4,4.2l-3.7,1.7l-1.2-4.6L103.4,182.3z M98.8,188.8l-4.5,2.1l-2.5-5.4l5.7-1.5L98.8,188.8z M99.2,190.2
			l1.1,4l-3.3,2.3l-2-4.4L99.2,190.2z M95.8,197.3l-4.1,2.9l-3.4-4.9l5.4-2.6L95.8,197.3z M96.4,198.6l1.8,3.8l-2.9,2.9l-2.8-4
			L96.4,198.6z M94.2,206.3l-3.5,3.5l-4.2-4.3l4.8-3.4L94.2,206.3z M95,207.5l2.1,3.1l-2.4,3.4l-3.1-3.1L95,207.5z M94,215.1
			l-2.9,4.1l-4.6-3.2l4.2-4.2L94,215.1z M95,216.1l2.9,3l-1.7,3.7l-3.9-2.8L95,216.1z M95.6,224l-2.1,4.6L88,226l3.4-4.9L95.6,224z
			 M96.7,224.8l3.4,2.4l-1.1,4l-4.4-2L96.7,224.8z M98.7,232.6l-1.3,4.9l-5.8-1.6l2.5-5.4L98.7,232.6z M100,233.2l3.8,1.8l-0.3,4.1
			l-4.6-1.3L100,233.2z M103.3,240.4l-0.4,5l-6-0.5l1.5-5.8L103.3,240.4z M104.6,240.8l4,1.1l0.4,4.1l-4.8-0.4L104.6,240.8z
			 M109.1,247.4l0.4,4.7l-5.9,0.5l0.5-5.6L109.1,247.4z M110.5,247.5l4.1,0.4l1,3.7l-4.7,0.4L110.5,247.5z M116,252.9l1.3,4.9
			l-5.8,1.5l-0.5-6L116,252.9z M117.4,252.8l3.9-0.3l1.8,3.8l-4.4,1.2L117.4,252.8z M123.7,257.5l2.2,4.6l-5.3,2.4l-1.6-5.8
			L123.7,257.5z M125.1,257.2l4-1l2.4,3.4l-4.3,2L125.1,257.2z M132.2,260.7l2.9,4.1l-4.9,3.4l-2.6-5.4L132.2,260.7z M133.5,260.1
			l3.7-1.7l3,2.9l-3.9,2.7L133.5,260.1z M141.2,262.3l3.6,3.6l-4.2,4.2l-3.5-4.9L141.2,262.3z M142.3,261.5l3.4-2.3l3.4,2.4
			l-3.4,3.4L142.3,261.5z M150.2,262.3l4.2,2.9l-3.4,4.9l-4.3-4.2L150.2,262.3z M151.2,261.3l2.9-2.9l3.8,1.8l-2.7,3.9L151.2,261.3z
			 M159.2,260.8l4.2,2l-2.5,5.3l-4.6-3.2L159.2,260.8z M160,259.6l2.4-3.3l3.6,1l-2,4.2L160,259.6z M167.3,257.6l4.9,1.3l-1.5,5.7
			l-5.5-2.5L167.3,257.6z M167.9,256.4l1.8-3.9l4.1,0.4l-1.3,4.8L167.9,256.4z M175.3,252.9l5,0.4l-0.6,6.1l-5.8-1.5L175.3,252.9z
			 M175.7,251.6l1.1-3.9l4.1-0.4l-0.4,4.7L175.7,251.6z M182.2,247.2l5-0.5l0.5,5.9l-5.9-0.5L182.2,247.2z M182.4,245.8l0.4-4l4-1.1
			l0.4,4.7L182.4,245.8z M188.1,240.3l4.8-1.3l1.5,5.7l-5.9,0.5L188.1,240.3z M188,238.9l-0.3-4l3.8-1.8l1.2,4.5L188,238.9z
			 M192.6,232.6l4.5-2.1l2.5,5.3l-5.8,1.6L192.6,232.6z M192.3,231.2l-1-3.9l3.4-2.4l2,4.3L192.3,231.2z M195.8,224.1l4-2.8l3.4,4.8
			l-5.3,2.5L195.8,224.1z M195.2,222.9l-1.7-3.7l2.9-2.9l2.7,3.8L195.2,222.9z M197.3,215.3l3.5-3.6l4.1,4.2l-4.9,3.4L197.3,215.3z
			 M201.9,210.8l4.4-4.4l6.2,4.3l-6.2,4.4L201.9,210.8z M207.2,205.4l5.6-5.6l9.1,4.3l-8.3,5.8L207.2,205.4z M206.1,204.6l-5.3-3.8
			l3.5-5l7.2,3.4L206.1,204.6z M205,194.7l4.5-6.4l10.1,2.7l-7.1,7.2L205,194.7z M203.8,194.1l-5.5-2.6l2.6-5.6l7.3,2L203.8,194.1z
			 M201.4,184.7l3.3-7.1l10,0.9l-5.7,8.2L201.4,184.7z M200,184.3l-5.9-1.6l1.6-5.9l7.5,0.7L200,184.3z M196.1,175.4l2.1-7.9l10-0.9
			l-4.4,9.4L196.1,175.4z M194.7,175.3l-6.1-0.5l0.5-6.4l7.6-0.6L194.7,175.3z M189.3,166.9l0.7-7.8l9.7-2.6l-2.6,9.7L189.3,166.9z
			 M187.9,167l-6.1,0.5l-0.6-6.1l7.3-1.9L187.9,167z M181.1,160.1l-0.7-7.8l9.1-4.2l-0.8,10L181.1,160.1z M179.7,160.4l-6,1.6
			l-1.6-5.9l6.9-3.2L179.7,160.4z M171.8,154.7l-2-7.5l8.3-5.7l0.9,10L171.8,154.7z M170.5,155.3l-5.7,2.7l-2.6-5.5l6.4-4.4
			L170.5,155.3z M161.6,151.2l-3.3-7l7.3-7.2l2.6,9.7L161.6,151.2z M160.5,152l-5.1,3.5l-3.5-5l5.4-5.3L160.5,152z M151.1,149.4
			l-4.5-6.4l5.8-8.2l4.3,9.1L151.1,149.4z M150.1,150.4l-4.4,4.3l-4.3-4.3l4.4-6.2L150.1,150.4z M140.4,149.4l-5.8-5.8l4.3-9.2
			l6,8.6L140.4,149.4z M139.6,150.6l-3.5,5l-5.4-3.7l3.3-6.9L139.6,150.6z M129.6,151.1l-6.4-4.5l2.6-9.8l7.1,7.1L129.6,151.1z
			 M129,152.3l-2.6,5.6l-5.5-2.6l2-7.4L129,152.3z M119.5,154.8l-7.1-3.3l0.9-10.1l8.2,5.7L119.5,154.8z M119.1,156.2l-1.6,6
			l-5.9-1.6l0.7-7.6L119.1,156.2z M110.3,160.3l-7.5-2l-0.9-10.1l9.1,4.2L110.3,160.3z M110.1,161.6l-0.5,5.9l-6.1-0.5l-0.6-7.4
			L110.1,161.6z M102.1,166.9l-7.8-0.7l-2.5-9.5l9.7,2.6L102.1,166.9z M102.2,168.3l0.5,6.2l-6.1,0.6l-2-7.4L102.2,168.3z
			 M95.2,175.2l-7.8,0.7l-4.3-9.2l10.1,0.9L95.2,175.2z M95.6,176.6l1.6,6l-5.9,1.6l-3.2-7L95.6,176.6z M89.9,184.6l-7.7,2.1
			l-5.8-8.3l10.2-0.9L89.9,184.6z M90.4,185.8l2.6,5.7l-5.7,2.7l-4.4-6.3L90.4,185.8z M86.1,194.8l-7.1,3.3l-7.2-7.2l9.8-2.6
			L86.1,194.8z M86.9,195.9l3.6,5.1l-5,3.5l-5.4-5.4L86.9,195.9z M84.3,205.4l-6.4,4.5l-8.3-5.9l9.1-4.3L84.3,205.4z M85.3,206.4
			l4.4,4.4l-4.3,4.4l-6.3-4.4L85.3,206.4z M84.4,216.2l-5.5,5.6l-9.2-4.3l8.3-5.8L84.4,216.2z M85.5,217l4.8,3.4l-3.6,5.1l-6.6-3.1
			L85.5,217z M85.9,226.6l-4.5,6.5l-9.4-2.5l7.1-7.2L85.9,226.6z M87.2,227.2l5.7,2.7l-2.6,5.7l-7.4-2L87.2,227.2z M89.7,236.8
			l-3.3,7.2L76.2,243l5.8-8.4L89.7,236.8z M91,237.1l6,1.6l-1.6,6l-7.7-0.7L91,237.1z M95.1,246.1l-1.9,7.3L83,254.3l4.1-8.9
			L95.1,246.1z M96.5,246.3l6.2,0.6l-0.5,5.9l-7.6,0.6L96.5,246.3z M102.1,254.1l-0.7,7.9l-9.8,2.6l2.6-9.8L102.1,254.1z M103.5,254
			l6.2-0.5l0.6,6.2l-7.4,2L103.5,254z M110.4,261l0.7,7.9l-9.2,4.3l0.9-10.1L110.4,261z M111.7,260.7l6-1.6l1.6,6l-6.9,3.2
			L111.7,260.7z M119.7,266.5l2.1,7.6l-8.3,5.8l-0.9-10.1L119.7,266.5z M121,265.9l5.5-2.5l2.7,5.7l-6.1,4.3L121,265.9z
			 M129.7,270.3l3.4,7.2l-7.1,7l-2.7-9.8L129.7,270.3z M130.8,269.5l5.1-3.5l3.6,5.1l-5.4,5.4L130.8,269.5z M140.3,272.2l4.6,6.5
			l-5.8,8.3l-4.3-9.2L140.3,272.2z M141.3,271.2l4.4-4.4l4.4,4.4l-4.4,6.3L141.3,271.2z M151.2,272.2l5.3,5.3l-4.3,9.1l-5.6-8
			L151.2,272.2z M152,271.1l3.6-5.1l4.8,3.3l-3.2,6.9L152,271.1z M161.5,270.1l6.5,4.5l-2.6,9.7l-7.2-7.2L161.5,270.1z M162.1,268.9
			l2.6-5.5l5.7,2.6l-2,7.3L162.1,268.9z M171.6,266.5l7.2,3.3l-0.9,10l-8.3-5.8L171.6,266.5z M172,265.2l1.6-5.9l6,1.6l-0.7,7.5
			L172,265.2z M181,261.2l7.7,2l0.9,10l-9.2-4.3L181,261.2z M181.1,259.8l0.6-6.4l6.2,0.5l0.7,7.8L181.1,259.8z M189.2,254.1
			l7.9,0.7l2.7,10l-9.8-2.6L189.2,254.1z M189.1,252.7l-0.5-6.1l6.2-0.6l1.9,7.3L189.1,252.7z M196.2,245.9l7.9-0.7l4.2,9.1
			l-10.1-0.9L196.2,245.9z M195.8,244.6l-1.6-5.9l6-1.6l3.2,6.9L195.8,244.6z M201.6,236.7l7.5-2l5.7,8.2l-10,0.9L201.6,236.7z
			 M201,235.4l-2.6-5.6l5.5-2.6l4.3,6.2L201,235.4z M205.2,226.7l7.1-3.3l7.1,7.1l-9.7,2.6L205.2,226.7z M204.4,225.5l-3.5-5
			l5.1-3.6l5.3,5.3L204.4,225.5z M207.1,216.1l6.4-4.5l8.2,5.8l-9.1,4.3L207.1,216.1z M234.6,195.1l-11.5,8.1l-9.3-4.4l7.3-7.4
			L234.6,195.1z M230.6,179.9l-9.9,10l-10.4-2.8l5.9-8.5L230.6,179.9z M223.7,165.4l-8.2,11.8l-10.2-0.9l4.5-9.7L223.7,165.4z
			 M214.7,152.6l-5.9,12.7l-10.3,0.9l2.6-10L214.7,152.6z M203.7,141.5l-3.6,13.5l-10,2.7l0.9-10.3L203.7,141.5z M190.8,132.5
			l-1.2,13.9l-9.4,4.4l-0.9-10.3L190.8,132.5z M176.6,125.9l1.3,13.9l-8.5,5.9l-2.7-10L176.6,125.9z M161.5,121.9l3.7,13.5l-7.5,7.4
			l-4.4-9.3L161.5,121.9z M145.6,120.2l6.2,13.1l-6,8.5l-6.2-8.8L145.6,120.2z M129.9,121.7l8.1,11.5l-4.4,9.4l-7.3-7.3L129.9,121.7
			z M114.7,125.8l9.9,9.9l-2.7,10.1l-8.5-5.9L114.7,125.8z M100.5,132.5l11.5,8l-0.9,10.4l-9.4-4.3L100.5,132.5z M87.7,141.6
			l12.7,5.9l0.9,10.4l-10-2.6L87.7,141.6z M76.6,152.8l13.5,3.6l2.6,9.8l-10.4-0.9L76.6,152.8z M67.4,165.4l14.2,1.2l4.4,9.5
			L75.5,177L67.4,165.4z M60.8,179.7l14-1.3l6,8.6l-10,2.7L60.8,179.7z M56.7,195l13.6-3.7l7.4,7.4l-9.4,4.4L56.7,195z M55.4,210.7
			l12.8-6l8.6,6l-8.5,6L55.4,210.7z M56.8,226.4l11.5-8.1l9.5,4.4l-7.3,7.4L56.8,226.4z M61,241.7l9.9-10l9.7,2.6l-6,8.6L61,241.7z
			 M67.4,255.7l7.9-11.3l10.5,0.9l-4.3,9.2L67.4,255.7z M76.4,268.6l6-12.9l10.4-0.9L90.1,265L76.4,268.6z M87.6,279.8l3.6-13.7
			l10.1-2.7l-0.9,10.4L87.6,279.8z M100.5,288.9l1.2-14.1l9.5-4.4l0.9,10.4L100.5,288.9z M114.9,295.6l-1.3-14.1l8.6-6l2.7,10.1
			L114.9,295.6z M130.1,299.7l-3.7-13.7l7.3-7.2l4.5,9.5L130.1,299.7z M145.6,300.8l-5.8-12.4l6-8.5l5.8,8.2L145.6,300.8z
			 M161.3,299.5l-8.1-11.6l4.4-9.4l7.4,7.4L161.3,299.5z M176.5,295.5l-10-10l2.7-10l8.6,6L176.5,295.5z M190.8,288.9l-11.6-8.1
			l0.9-10.3l9.5,4.4L190.8,288.9z M203.8,279.9l-12.8-5.9l-0.9-10.3l10.1,2.7L203.8,279.9z M215,268.8l-13.7-3.6l-2.7-10.3l10.4,0.9
			L215,268.8z M223.7,255.7l-13.9-1.2l-4.3-9.4l10.3-0.9L223.7,255.7z M230.4,241.5l-14,1.3l-5.9-8.5l10-2.7L230.4,241.5z
			 M213.7,222.7l9.4-4.4l11.4,8.1L221,230L213.7,222.7z"/>
	</g>
</g>
</svg>
